<svg xmlns="http://www.w3.org/2000/svg" width="49" height="49" viewBox="0 0 49 49" fill="none">
  <mask id="mask0_24_1639" style="mask-type:alpha" maskUnits="userSpaceOnUse" x="12" y="16" width="26" height="22">
    <path fill-rule="evenodd" clip-rule="evenodd" d="M12.9445 29.197C12.0992 29.2478 11.7693 30.3199 12.4398 30.8371L21.1042 37.5199C25.745 33.1189 31.3901 29.7665 37.66 27.8421L36.2195 17.1079C36.1069 16.2685 35.0135 16.0182 34.5469 16.7249L31.7871 20.9048C31.5491 21.2653 31.0915 21.4105 30.6891 21.2533L21.517 17.6698C20.9701 17.4562 20.3662 17.8048 20.2778 18.3853L18.7951 28.1203C18.7301 28.5474 18.3755 28.8711 17.9442 28.8969L12.9445 29.197Z" fill="#D9D9D9"/>
  </mask>
  <g mask="url(#mask0_24_1639)">
    <path d="M12.4398 30.8371C11.7693 30.3199 12.0992 29.2478 12.9445 29.1971L17.9442 28.897C18.3755 28.8711 18.7301 28.5475 18.7951 28.1204L20.2778 18.3853C20.3662 17.8049 20.9701 17.4562 21.517 17.6699L30.6891 21.2534C31.0915 21.4106 31.5491 21.2653 31.7871 20.9048L34.5469 16.725C35.0135 16.0182 36.1069 16.2686 36.2196 17.1079L37.7348 28.3997C37.7842 28.7678 37.6065 29.1293 37.2849 29.315L22.4788 37.8633C22.1572 38.049 21.7552 38.0221 21.4611 37.7953L12.4398 30.8371Z" fill="#FFCB65"/>
    <rect x="19.8712" y="16.265" width="14.7739" height="24.6232" transform="rotate(-30 19.8712 16.265)" fill="#FFDE9E"/>
  </g>
  <circle cx="19.0351" cy="14.8021" r="2.3522" transform="rotate(-30 19.0351 14.8021)" fill="#F6B535"/>
  <circle cx="9.66183" cy="27.4556" r="1.56751" transform="rotate(-30 9.66183 27.4556)" fill="#F6B535"/>
  <circle cx="34.6635" cy="13.0209" r="1.56751" transform="rotate(-30 34.6635 13.0209)" fill="#F6B535"/>
</svg>