<svg xmlns="http://www.w3.org/2000/svg" width="80" height="80" viewBox="0 0 80 80" fill="none">
  <mask id="mask0_292_284" style="mask-type:alpha" maskUnits="userSpaceOnUse" x="0" y="0" width="80" height="80">
    <circle cx="40" cy="40" r="40" fill="#373535"/>
  </mask>
  <g mask="url(#mask0_292_284)">
    <circle cx="40" cy="40" r="40" fill="#373535"/>
    <path d="M48.9383 22.712C51.7267 21.3355 55.0942 22.6638 56.1922 25.5731L59.0253 33.08C59.5814 34.5534 60.7681 35.7005 62.2596 36.2061L69.8585 38.7822C72.8035 39.7806 74.2455 43.101 72.9647 45.9345L69.6598 53.246C69.0111 54.6811 69.0392 56.3313 69.7363 57.7435L73.288 64.9383C74.6645 67.7267 73.3362 71.0942 70.4269 72.1922L62.9201 75.0253C61.4466 75.5814 60.2995 76.7681 59.7939 78.2596L57.2178 85.8585C56.2194 88.8035 52.8991 90.2455 50.0655 88.9647L42.754 85.6598C41.3189 85.0111 39.6687 85.0392 38.2565 85.7364L31.0617 89.288C28.2733 90.6645 24.9058 89.3363 23.8078 86.4269L20.9747 78.9201C20.4186 77.4466 19.2319 76.2996 17.7404 75.7939L10.1415 73.2178C7.19648 72.2195 5.75448 68.8991 7.0353 66.0655L10.3402 58.754C10.9889 57.3189 10.9608 55.6687 10.2637 54.2565L6.71199 47.0617C5.33553 44.2733 6.66375 40.9058 9.57308 39.8078L17.0799 36.9747C18.5534 36.4186 19.7004 35.2319 20.2061 33.7404L22.7822 26.1415C23.7806 23.1965 27.1009 21.7545 29.9345 23.0353L37.246 26.3402C38.6811 26.9889 40.3313 26.9608 41.7435 26.2637L48.9383 22.712Z" fill="#A3A3A3"/>
    <circle cx="32.1591" cy="50.5686" r="4.81819" fill="#191818"/>
    <circle cx="49.023" cy="50.5686" r="4.81819" fill="#191818"/>
    <circle cx="33.9135" cy="49.9134" r="0.931003" fill="white"/>
    <circle cx="47.0714" cy="49.9134" r="0.931003" fill="white"/>
    <path d="M38.182 59.8163C38.9764 60.6587 40.9702 61.682 42.8497 59.8163" stroke="#191818" stroke-width="2.40909" stroke-linecap="round"/>
  </g>
</svg>