<svg xmlns="http://www.w3.org/2000/svg" width="20" height="20" viewBox="0 0 20 20" fill="none">
  <path d="M10 14.1667C7.00846 14.1667 4.58333 11.7415 4.58333 8.75V3.7963C4.58333 3.36449 4.58333 3.14859 4.66141 2.98115C4.74421 2.80359 4.88692 2.66088 5.06448 2.57808C5.23192 2.5 5.44782 2.5 5.87963 2.5H14.1204C14.5522 2.5 14.7681 2.5 14.9355 2.57808C15.1131 2.66088 15.2558 2.80359 15.3386 2.98115C15.4167 3.14859 15.4167 3.36449 15.4167 3.7963V8.75C15.4167 11.7415 12.9915 14.1667 10 14.1667ZM10 14.1667V17.5M14.1667 17.5H5.83333M18.3333 4.16667V8.33333M1.66667 4.16667V8.33333" stroke="currentColor" stroke-width="1.5" stroke-linecap="round" stroke-linejoin="round"/>
</svg>