<svg xmlns="http://www.w3.org/2000/svg" width="24" height="24" viewBox="0 0 24 24" fill="none">
  <mask id="mask0_19_1304" style="mask-type:alpha" maskUnits="userSpaceOnUse" x="0" y="0" width="24" height="24">
    <rect width="24" height="24" fill="#C4C4C4"/>
  </mask>
  <g mask="url(#mask0_19_1304)">
    <path d="M22.7989 1.20001V4.67514C22.7989 8.67528 19.5859 11.9256 15.5977 11.9902L15.4767 11.9912L11.9984 11.9914V15.4752C11.9984 19.5908 8.73109 22.8008 4.70595 22.8008H1.19806V19.2224C1.19806 19.2064 1.19811 19.1904 1.19821 19.1745V11.4425C1.19821 5.78573 5.78783 1.20001 11.4494 1.20001H22.7989Z" fill="white"/>
    <path fill-rule="evenodd" clip-rule="evenodd" d="M18.1628 1.20001H22.7996V4.67486C22.7996 8.79042 19.5323 12.0004 15.5072 12.0004H15.3861H11.9993V8.42491C11.9993 4.77849 14.6694 1.75513 18.1628 1.20001Z" fill="#242265" fill-opacity="0.8"/>
    <path d="M22.7989 1.20001V4.67514C22.7989 8.67528 19.5859 11.9256 15.5977 11.9902L15.4767 11.9912L11.9984 11.9914V15.4752C11.9984 19.5908 8.73109 22.8008 4.70595 22.8008H1.19806V19.2224C1.19806 19.2064 1.19811 19.1904 1.19821 19.1745V11.4425C1.19821 5.78573 5.78783 1.20001 11.4494 1.20001H22.7989Z" fill="#616EE1" fill-opacity="0.8"/>
  </g>
</svg>