<svg xmlns="http://www.w3.org/2000/svg" width="24" height="24" viewBox="0 0 24 24" fill="none">
  <rect width="24" height="24" rx="8" fill="#3B99FC"/>
  <circle cx="12" cy="12" r="12" fill="#3B99FC"/>
  <path fill-rule="evenodd" clip-rule="evenodd" d="M16.7245 8.95383C14.1152 6.34872 9.88479 6.34872 7.27553 8.95383L6.93086 9.29795C6.80039 9.42821 6.80039 9.63939 6.93086 9.76965L8.00508 10.8422C8.07032 10.9073 8.17608 10.9073 8.24131 10.8422L8.7041 10.3801C10.5244 8.56273 13.4756 8.56273 15.2959 10.3801L15.7281 10.8116C15.7933 10.8767 15.8991 10.8767 15.9643 10.8116L17.0385 9.73905C17.169 9.60879 17.169 9.39761 17.0385 9.26735L16.7245 8.95383ZM19.9022 12.1264L18.9461 11.1719C18.8156 11.0416 18.6041 11.0416 18.4736 11.1719L15.414 14.2267C15.3814 14.2592 15.3285 14.2592 15.2959 14.2267L12.2362 11.1718L12.2362 11.1718C12.1057 11.0416 11.8942 11.0416 11.7637 11.1718L8.70418 14.2267C8.67156 14.2592 8.61868 14.2592 8.58606 14.2267L5.52636 11.1718C5.3959 11.0416 5.18438 11.0416 5.05391 11.1718L4.09785 12.1264C3.96738 12.2566 3.96738 12.4678 4.09785 12.5981L8.40893 16.9023C8.5394 17.0326 8.75092 17.0326 8.88138 16.9023L11.941 13.8475C11.9736 13.815 12.0265 13.815 12.0591 13.8475L15.1187 16.9023C15.2492 17.0326 15.4607 17.0326 15.5912 16.9023L19.9022 12.5981C20.0326 12.4679 20.0326 12.2567 19.9022 12.1264Z" fill="white"/>
</svg>